<?xml version="1.0" encoding="UTF-8"?>
<svg version="1.1" xmlns="http://www.w3.org/2000/svg" width="1247" height="1245">
<path d="M0 0 C411.51 0 823.02 0 1247 0 C1247 410.85 1247 821.7 1247 1245 C835.49 1245 423.98 1245 0 1245 C0 834.15 0 423.3 0 0 Z " fill="#000100" transform="translate(0,0)"/>
<path d="M0 0 C0.66 0 1.32 0 2 0 C3.44487629 1.67121957 4.80198228 3.41824409 6.125 5.1875 C7.02591919 6.38290482 7.92697028 7.57821023 8.828125 8.7734375 C9.32892578 9.44213867 9.82972656 10.11083984 10.34570312 10.79980469 C12.81604319 14.08532781 15.31625065 17.34785672 17.81274414 20.61352539 C23.79352591 28.44086557 29.73526353 36.29615721 35.63452148 44.18505859 C40.82374816 51.11631385 46.09025343 57.98791292 51.35888672 64.85888672 C54.07575435 68.40350576 56.7875763 71.95198007 59.5 75.5 C60.3053418 76.5528418 60.3053418 76.5528418 61.12695312 77.62695312 C63.82523903 81.15448416 66.52178224 84.68332223 69.21484375 88.21484375 C74.79377723 95.52677523 80.40308565 102.81263793 86.0625 110.0625 C91.0013197 116.3899371 95.86639584 122.76561842 100.64355469 129.21606445 C103.10447002 132.52630382 105.61085046 135.778934 108.2265625 138.96875 C108.74452393 139.60522461 109.26248535 140.24169922 109.79614258 140.89746094 C110.78245714 142.10244483 111.7792218 143.29897544 112.7878418 144.48535156 C116.04745476 148.47926305 116.04745476 148.47926305 115.81689453 151.00927734 C114.83950179 153.39112444 113.88216937 154.22678885 111.81640625 155.7421875 C111.14512695 156.24387451 110.47384766 156.74556152 109.78222656 157.26245117 C109.0497168 157.79459229 108.31720703 158.3267334 107.5625 158.875 C106.00581836 160.03422749 104.44985218 161.19441624 102.89453125 162.35546875 C102.08709473 162.95407715 101.2796582 163.55268555 100.44775391 164.16943359 C96.50417581 167.11866046 92.6285763 170.1536099 88.75 173.1875 C83.67885867 177.14112501 78.60079154 181.08469393 73.5 185 C68.31684228 188.97898977 63.15557352 192.98534375 58 197 C51.81853877 201.81351723 45.62078118 206.60424879 39.40625 211.375 C34.4743577 215.16876331 29.5701915 218.99830911 24.66113281 222.8215332 C20.20244711 226.29228992 15.73388153 229.74937109 11.25 233.1875 C6.33025166 236.96483487 1.4448949 240.7829314 -3.42773438 244.62060547 C-10.48757112 250.17781576 -17.58584101 255.68547643 -24.68115234 261.19726562 C-26.97248427 262.97860853 -29.26193773 264.76233623 -31.55078125 266.546875 C-38.90226902 272.27634894 -46.27103111 277.97982997 -53.6875 283.625 C-59.03934877 287.69908873 -64.32847406 291.83819858 -69.5625 296.0625 C-75.30695433 300.69780114 -81.1617673 305.16027571 -87.08349609 309.56616211 C-92.09240358 313.29933103 -97.02171891 317.12222837 -101.92211914 320.99633789 C-105.75828931 324.02845816 -109.61831718 327.02639571 -113.5 330 C-118.08380024 333.51480653 -122.64530309 337.05657038 -127.1875 340.625 C-127.77337891 341.08527588 -128.35925781 341.54555176 -128.96289062 342.01977539 C-132.49561259 344.8009495 -136.00292771 347.61153004 -139.5 350.4375 C-149.11632867 358.09903399 -149.11632867 358.09903399 -152.00634766 357.77514648 C-155.51212241 356.41207584 -157.26841277 353.04015073 -159.375 350.0625 C-160.44495329 348.59253934 -161.51663495 347.12383552 -162.58984375 345.65625 C-163.42684814 344.50576172 -163.42684814 344.50576172 -164.28076172 343.33203125 C-167.09260697 339.51795203 -170.01488386 335.79195838 -172.9375 332.0625 C-178.18960337 325.33940049 -183.39394784 318.58198216 -188.56884766 311.79931641 C-192.35070752 306.84381661 -196.15541762 301.90708515 -200 297 C-205.01480802 298.56230558 -208.51839909 301.58722261 -212.5 304.875 C-213.15097656 305.40480469 -213.80195312 305.93460937 -214.47265625 306.48046875 C-217.27788403 308.76432086 -220.07101259 311.05950231 -222.84375 313.3828125 C-225 315 -225 315 -227 315 C-224.58006255 319.33572127 -222.02460617 323.55032058 -219.375 327.75 C-207.52080986 346.90059038 -198.52149136 367.13056365 -193 389 C-192.73703125 389.9796875 -192.4740625 390.959375 -192.203125 391.96875 C-182.38957788 430.82238555 -183.30243621 478.45145342 -199.25 515.625 C-199.68183594 516.63175781 -200.11367188 517.63851562 -200.55859375 518.67578125 C-201.03425781 519.77277344 -201.50992188 520.86976563 -202 522 C-202.53325587 523.26402624 -203.06577688 524.52836269 -203.59765625 525.79296875 C-214.33216145 551.10838072 -229.07119135 573.04427946 -248 593 C-248.52335938 593.5573584 -249.04671875 594.1147168 -249.5859375 594.68896484 C-280.12564782 627.02781479 -321.54259153 647.88032631 -365 656 C-366.22299805 656.2477417 -366.22299805 656.2477417 -367.47070312 656.50048828 C-391.85165317 661.38374816 -419.69358879 661.12951853 -444 656 C-445.27254639 655.74259033 -445.27254639 655.74259033 -446.57080078 655.47998047 C-474.32824925 649.76085235 -500.54563374 638.97027968 -524 623 C-524.60102539 622.59426758 -525.20205078 622.18853516 -525.82128906 621.77050781 C-538.65508523 613.04629381 -550.24807215 603.18880077 -561 592 C-565.77641832 594.62143271 -569.81626563 597.98321747 -574 601.4375 C-575.39573204 602.58215478 -576.79156307 603.72668885 -578.1875 604.87109375 C-578.84105469 605.40847168 -579.49460937 605.94584961 -580.16796875 606.49951172 C-582.43007292 608.35224256 -584.71110416 610.18050662 -587 612 C-585.62678919 614.95483335 -584.03258055 617.41504382 -582.0234375 619.9765625 C-581.43941162 620.72429932 -580.85538574 621.47203613 -580.25366211 622.24243164 C-579.63370361 623.0286792 -579.01374512 623.81492676 -578.375 624.625 C-577.73763916 625.4389624 -577.10027832 626.2529248 -576.44360352 627.09155273 C-573.2990446 631.10147631 -570.13511477 635.09470705 -566.9375 639.0625 C-562.84659669 644.14327927 -558.89067856 649.32590872 -554.94848633 654.52246094 C-552.30955045 657.99879234 -549.65352872 661.45213529 -546.90625 664.84375 C-546.19927979 665.7267981 -546.19927979 665.7267981 -545.47802734 666.62768555 C-544.20482017 668.21310646 -542.91921455 669.7885477 -541.6328125 671.36328125 C-540 674 -540 674 -539.85546875 676.0390625 C-541.65164482 679.11646996 -544.37281059 680.97619948 -547.1875 683.0625 C-548.47807231 684.04660264 -549.7684313 685.03098509 -551.05859375 686.015625 C-551.71843262 686.51384766 -552.37827148 687.01207031 -553.05810547 687.52539062 C-555.98623882 689.74891658 -558.8663498 692.03179866 -561.75 694.3125 C-569.37058532 700.30711589 -577.02879173 706.25337073 -584.68554688 712.20166016 C-588.45815632 715.13299361 -592.22902578 718.06656343 -596 721 C-600.54597846 724.53631149 -605.09237548 728.07207843 -609.640625 731.60546875 C-616.43929352 736.88821794 -623.23468481 742.17457332 -630 747.5 C-637.53522523 753.43147375 -645.1080303 759.31430288 -652.68115234 765.19726562 C-654.97248427 766.97860853 -657.26193773 768.76233623 -659.55078125 770.546875 C-666.1755992 775.70985177 -672.80634316 780.86209379 -679.49414062 785.94335938 C-686.45697353 791.23409125 -693.2930294 796.64610068 -700.05126953 802.19555664 C-705.25678853 806.44850281 -710.6012995 810.48308866 -716.00244141 814.48291016 C-720.74925155 818.01609331 -725.36461669 821.68252621 -729.9375 825.4375 C-736.72272708 831.00722724 -743.6475651 836.36533235 -750.63671875 841.67578125 C-762.2856453 850.53022847 -773.77886182 859.59100132 -785.27490234 868.64257812 C-787.11583906 870.0911499 -788.95814813 871.5379618 -790.80078125 872.984375 C-791.43016602 873.47848877 -792.05955078 873.97260254 -792.70800781 874.48168945 C-793.90386737 875.42046125 -795.09982365 876.35910986 -796.29589844 877.29760742 C-799.54409204 879.84845145 -802.77905004 882.41484277 -806 885 C-810.17072779 883.4624045 -812.29435251 880.433255 -814.875 877 C-815.85544216 875.7239379 -816.83591226 874.44789727 -817.81640625 873.171875 C-818.33348145 872.49318359 -818.85055664 871.81449219 -819.38330078 871.11523438 C-821.59033798 868.22762183 -823.82562294 865.36244231 -826.06079102 862.49658203 C-827.84295716 860.21093843 -829.62105787 857.92217962 -831.3984375 855.6328125 C-833.75229878 852.60242275 -836.11171527 849.57651092 -838.4765625 846.5546875 C-845.28656061 837.8437331 -851.98024396 829.05627655 -858.59423828 820.19555664 C-863.12665104 814.13435857 -867.75526684 808.15991345 -872.453125 802.2265625 C-875.01849647 798.98557793 -877.54563317 795.71623716 -880.0625 792.4375 C-880.47443604 791.90092773 -880.88637207 791.36435547 -881.31079102 790.81152344 C-882.54100837 789.20805053 -883.77054918 787.60406068 -885 786 C-886.58268269 783.93700068 -888.16602627 781.87450822 -889.75 779.8125 C-890.15081787 779.29051025 -890.55163574 778.76852051 -890.96459961 778.23071289 C-893.45016377 774.99885437 -895.95046485 771.77896024 -898.4609375 768.56640625 C-904.20306212 761.21574859 -909.89806328 753.86607933 -915.3125 746.26953125 C-916.9456503 744.07309531 -918.67615253 742.03916279 -920.5 740 C-923 737 -923 737 -923 734 C-920.66759167 732.03714208 -918.35206926 730.26334221 -915.875 728.5 C-914.3948146 727.41936276 -912.91566625 726.33730378 -911.4375 725.25390625 C-910.68984375 724.70879395 -909.9421875 724.16368164 -909.171875 723.60205078 C-906.02138535 721.27813969 -902.94337503 718.86827919 -899.875 716.4375 C-899.3063623 715.98826172 -898.73772461 715.53902344 -898.15185547 715.07617188 C-897.00671791 714.17097099 -895.86202131 713.26521197 -894.71777344 712.35888672 C-891.81791017 710.06487891 -888.90843766 707.78311952 -886 705.5 C-884.83328816 704.58339083 -883.66662147 703.66672418 -882.5 702.75 C-872 694.5 -872 694.5 -861.5 686.25 C-860.92282227 685.7964917 -860.34564453 685.3429834 -859.75097656 684.87573242 C-858.58109984 683.95656687 -857.41117777 683.03745905 -856.24121094 682.1184082 C-853.37328843 679.86543906 -850.5060901 677.61156277 -847.640625 675.35546875 C-840.34109862 669.61047113 -833.016951 663.89796383 -825.68164062 658.19873047 C-819.33053812 653.26214248 -813.00111871 648.29861709 -806.68115234 643.32226562 C-804.97260195 641.97845079 -803.26199239 640.63729962 -801.55078125 639.296875 C-796.19311103 635.09806682 -790.84843027 630.88570869 -785.54467773 626.61889648 C-778.8871849 621.26367121 -772.14783578 616.03235519 -765.34545898 610.86254883 C-759.95594382 606.75669027 -754.65384874 602.55243193 -749.3762207 598.30419922 C-745.00074014 594.78687218 -740.58012424 591.33878446 -736.12182617 587.92675781 C-724.23250925 578.82678147 -712.4490048 569.58849591 -700.68554688 560.32666016 C-697.79191173 558.04913794 -694.89580677 555.77475993 -692 553.5 C-690.83332204 552.5833477 -689.66665536 551.66668105 -688.5 550.75 C-686.16666667 548.91666667 -683.83333333 547.08333333 -681.5 545.25 C-680.92161377 544.7952832 -680.34322754 544.34056641 -679.74731445 543.87207031 C-678.59066209 542.96381458 -677.43296084 542.05689287 -676.27416992 541.15136719 C-673.19396932 538.74141754 -670.14000435 536.30501477 -667.11328125 533.828125 C-666.47712891 533.31314453 -665.84097656 532.79816406 -665.18554688 532.26757812 C-663.95999506 531.27461278 -662.74092352 530.27358192 -661.52929688 529.26367188 C-659.86328125 527.921875 -659.86328125 527.921875 -657 526 C-653.78088118 527.07303961 -653.35795137 527.4961371 -651.46875 530.10546875 C-650.75609985 531.07540771 -650.75609985 531.07540771 -650.02905273 532.06494141 C-649.52446533 532.76538574 -649.01987793 533.46583008 -648.5 534.1875 C-647.41931713 535.6585436 -646.33725896 537.12857775 -645.25390625 538.59765625 C-644.70879395 539.33902832 -644.16368164 540.08040039 -643.60205078 540.84423828 C-641.26981893 543.98255088 -638.86340685 547.05882576 -636.4375 550.125 C-635.98826172 550.69371826 -635.53902344 551.26243652 -635.07617188 551.84838867 C-634.17093159 552.99341373 -633.26517235 554.13802871 -632.35888672 555.28222656 C-630.52540287 557.59993988 -628.69997021 559.92392398 -626.87524414 562.24853516 C-625.96507643 563.40769425 -625.05411776 564.56623276 -624.14233398 565.72412109 C-621.73716128 568.77944542 -619.34485583 571.84387602 -616.96875 574.921875 C-616.47181641 575.56253906 -615.97488281 576.20320312 -615.46289062 576.86328125 C-614.51001416 578.09222473 -613.56061046 579.32387124 -612.61523438 580.55859375 C-610.53769646 583.23104882 -608.84457036 585.10361976 -606 587 C-597.86717819 581.16523004 -589.90742936 575.13485775 -582 569 C-582.6148885 565.99498712 -583.57097453 563.81103794 -585.22265625 561.234375 C-585.67471436 560.51781738 -586.12677246 559.80125977 -586.5925293 559.06298828 C-587.07761963 558.29970215 -587.56270996 557.53641602 -588.0625 556.75 C-618.3161753 508.04418028 -629.01201199 449.58208585 -616.40820312 393.3425293 C-606.97401538 354.2641131 -586.89816148 318.81348051 -559 290 C-558.49500977 289.46922852 -557.99001953 288.93845703 -557.46972656 288.39160156 C-549.86349952 280.41091411 -541.94606094 273.43771894 -533 267 C-531.40865234 265.84371094 -531.40865234 265.84371094 -529.78515625 264.6640625 C-522.1507595 259.24132736 -514.24686455 254.42163016 -506 250 C-505.37754395 249.66613281 -504.75508789 249.33226562 -504.11376953 248.98828125 C-489.61972012 241.30131778 -474.82451274 235.58853276 -459 231.25 C-457.98115723 230.96825928 -456.96231445 230.68651855 -455.91259766 230.39624023 C-439.85671016 226.1590943 -424.38716519 224.4727317 -407.8125 224.625 C-406.46895447 224.63148056 -406.46895447 224.63148056 -405.0982666 224.63809204 C-391.22117253 224.71640208 -377.64732682 225.29577763 -364 228 C-362.72914551 228.24145752 -362.72914551 228.24145752 -361.43261719 228.48779297 C-341.46823745 232.39582593 -321.70855427 239.20401339 -303.85058594 248.98632812 C-301.93368239 250.03632595 -300.00283602 251.05720505 -298.0703125 252.078125 C-279.98959344 261.78164285 -262.23437963 274.16299262 -248.74609375 289.76953125 C-247.01979178 291.24918898 -247.01979178 291.24918898 -244.53515625 290.9140625 C-241.65243494 289.87468378 -240.19274651 288.69100589 -238 286.5625 C-234.13877446 282.96260952 -230.13360255 279.69340793 -225.9375 276.5 C-225.35291016 276.05470947 -224.76832031 275.60941895 -224.16601562 275.15063477 C-222.77942491 274.09767695 -221.39002168 273.04842439 -220 272 C-221.63995901 268.28335376 -224.00675075 265.2342978 -226.5 262.0625 C-227.41156115 260.89070497 -228.32301671 259.71882781 -229.234375 258.546875 C-229.69779297 257.95326172 -230.16121094 257.35964844 -230.63867188 256.74804688 C-232.69010849 254.11384922 -234.71887643 251.46237645 -236.75 248.8125 C-240.2117962 244.3067472 -243.69336512 239.81663257 -247.18408203 235.33325195 C-248.3893985 233.78455479 -249.59351153 232.23492024 -250.79638672 230.68432617 C-253.54802211 227.13855654 -256.30965565 223.60329411 -259.1171875 220.1015625 C-259.82101562 219.21404297 -259.82101562 219.21404297 -260.5390625 218.30859375 C-261.7880259 216.73460771 -263.04602734 215.16780521 -264.3046875 213.6015625 C-266 211 -266 211 -266 207 C-264.27856445 205.23583984 -264.27856445 205.23583984 -261.86328125 203.4609375 C-260.98260986 202.80335449 -260.10193848 202.14577148 -259.19458008 201.46826172 C-258.24349365 200.77748535 -257.29240723 200.08670898 -256.3125 199.375 C-254.36445812 197.9272518 -252.41654101 196.47933569 -250.46875 195.03125 C-249.52128906 194.33386719 -248.57382812 193.63648438 -247.59765625 192.91796875 C-244.47074413 190.60922612 -241.38741125 188.2525087 -238.3125 185.875 C-236.82169922 184.72644531 -236.82169922 184.72644531 -235.30078125 183.5546875 C-230.41093043 179.77498967 -225.53651182 175.97537177 -220.66040039 172.17797852 C-216.20202278 168.70730303 -211.73370492 165.25037796 -207.25 161.8125 C-202.21279543 157.94600252 -197.21401591 154.03367678 -192.22729492 150.10253906 C-188.36171082 147.05890698 -184.47070595 144.05112808 -180.5625 141.0625 C-175.82446501 137.43657102 -171.15018268 133.73783512 -166.5 130 C-161.41499941 125.91376955 -156.29471184 121.88539857 -151.11401367 117.92089844 C-146.49582431 114.38652019 -141.90137612 110.82234361 -137.3125 107.25 C-136.55090576 106.65719238 -135.78931152 106.06438477 -135.00463867 105.45361328 C-133.44654195 104.24065319 -131.88851837 103.02759914 -130.33056641 101.81445312 C-125.80632891 98.29212618 -121.27984338 94.77268848 -116.75341797 91.25317383 C-112.98892354 88.32582387 -109.22565082 85.39692983 -105.46484375 82.46484375 C-97.38133602 76.16538463 -89.27158318 69.90346499 -81.12182617 63.68994141 C-76.05195631 59.81900726 -71.02544395 55.89648185 -66.01757812 51.94580078 C-61.76017841 48.58937999 -57.47136976 45.27584635 -53.17041016 41.9753418 C-42.17870163 33.53498615 -31.23626222 25.03412121 -20.43359375 16.3527832 C-15.4200186 12.32547399 -10.36915664 8.34726888 -5.30175781 4.38793945 C-2.55956582 2.29966538 -2.55956582 2.29966538 0 0 Z " fill="#FCFDFC" transform="translate(1023,171)"/>
<path d="M0 0 C0.96967712 0.00204437 1.93935425 0.00408875 2.93841553 0.00619507 C17.06450023 0.05476488 30.70109317 0.54504095 44.375 4.4375 C45.22280029 4.67815186 46.07060059 4.91880371 46.9440918 5.16674805 C53.6575813 7.12829237 59.98036469 9.60527398 66.375 12.4375 C67.01356934 12.71722656 67.65213867 12.99695313 68.31005859 13.28515625 C83.71468485 20.08099042 97.69835959 28.27185233 110.375 39.4375 C111.24898437 40.20191406 112.12296875 40.96632813 113.0234375 41.75390625 C115.50192361 43.95328356 117.94550397 46.18423684 120.375 48.4375 C121.26251953 49.24380859 121.26251953 49.24380859 122.16796875 50.06640625 C150.29972662 76.72809601 168.4291335 119.91787403 169.61328125 158.46484375 C170.41240263 207.33910752 153.77796035 250.90375271 120.02026367 286.12646484 C104.38573271 302.09733056 85.67705782 313.59640132 65.31201172 322.58251953 C63.61901248 323.32979497 61.93557682 324.09866183 60.25390625 324.87109375 C25.70750231 339.59804682 -21.07204991 338.81793731 -55.796875 325.42578125 C-67.99136687 320.49688472 -79.81534526 314.98356237 -90.625 307.4375 C-91.69621094 306.72335937 -92.76742187 306.00921875 -93.87109375 305.2734375 C-128.20965317 282.00199834 -154.96539982 243.66390756 -163.1237793 202.68774414 C-163.68475353 199.61203273 -164.1736284 196.53113147 -164.625 193.4375 C-164.79410889 192.39021729 -164.96321777 191.34293457 -165.13745117 190.26391602 C-165.67229489 186.06631679 -165.85770303 181.96066967 -165.93359375 177.734375 C-165.94872009 176.90657028 -165.96384644 176.07876556 -165.97943115 175.22587585 C-166.0192726 172.54638239 -166.04443147 169.86722674 -166.0625 167.1875 C-166.0686734 166.27509552 -166.0748468 165.36269104 -166.08120728 164.42263794 C-166.13474271 145.58126643 -163.71549021 128.04337931 -156.625 110.4375 C-156.34245361 109.72102295 -156.05990723 109.0045459 -155.76879883 108.26635742 C-147.66820165 87.92204286 -137.19572512 69.9557111 -122.0703125 54.05859375 C-119.61348565 51.49305337 -119.61348565 51.49305337 -117.51953125 48.796875 C-114.6151302 45.17984772 -111.19520258 42.38104867 -107.625 39.4375 C-106.73167969 38.695 -105.83835937 37.9525 -104.91796875 37.1875 C-87.59909237 23.31461314 -68.07492138 12.97838782 -47 6.125 C-46.29738037 5.89441895 -45.59476074 5.66383789 -44.87084961 5.42626953 C-29.9307425 0.8295733 -15.51789659 -0.098294 0 0 Z " fill="#000101" transform="translate(617.625,445.5625)"/>
</svg>
